<svg width="217" height="258" viewBox="0 0 217 258" fill="none" xmlns="http://www.w3.org/2000/svg">
<mask id="path-1-outside-1_2002_533" maskUnits="userSpaceOnUse" x="-0.169044" y="-0.169044" width="217.284" height="258.338" fill="black">
<rect fill="white" x="-0.169044" y="-0.169044" width="217.284" height="258.338"/>
<path d="M150.561 251.276C129.964 254.908 108.785 253.278 88.9867 246.538C69.1886 239.799 51.4138 228.167 37.3115 212.723C23.2093 197.279 13.2366 178.523 8.3189 158.196C3.40118 137.868 3.69777 116.628 9.18115 96.4459C14.6645 76.2637 25.157 57.7936 39.685 42.7495C54.213 27.7053 72.3057 16.5746 92.2842 10.3902C112.263 4.20586 133.48 3.16819 153.966 7.3735C174.453 11.5788 193.546 20.8909 209.472 34.4455L185.331 62.8119C174.182 53.3236 160.817 46.8052 146.476 43.8615C132.136 40.9177 117.284 41.6441 103.299 45.9732C89.314 50.3022 76.6491 58.0937 66.4795 68.6246C56.3099 79.1555 48.9652 92.0846 45.1268 106.212C41.2884 120.34 41.0808 135.208 44.5232 149.437C47.9656 163.666 54.9465 176.795 64.8181 187.606C74.6897 198.417 87.132 206.559 100.991 211.277C114.849 215.995 129.675 217.135 144.092 214.593L150.561 251.276Z"/>
</mask>
<path d="M150.561 251.276C129.964 254.908 108.785 253.278 88.9867 246.538C69.1886 239.799 51.4138 228.167 37.3115 212.723C23.2093 197.279 13.2366 178.523 8.3189 158.196C3.40118 137.868 3.69777 116.628 9.18115 96.4459C14.6645 76.2637 25.157 57.7936 39.685 42.7495C54.213 27.7053 72.3057 16.5746 92.2842 10.3902C112.263 4.20586 133.48 3.16819 153.966 7.3735C174.453 11.5788 193.546 20.8909 209.472 34.4455L185.331 62.8119C174.182 53.3236 160.817 46.8052 146.476 43.8615C132.136 40.9177 117.284 41.6441 103.299 45.9732C89.314 50.3022 76.6491 58.0937 66.4795 68.6246C56.3099 79.1555 48.9652 92.0846 45.1268 106.212C41.2884 120.34 41.0808 135.208 44.5232 149.437C47.9656 163.666 54.9465 176.795 64.8181 187.606C74.6897 198.417 87.132 206.559 100.991 211.277C114.849 215.995 129.675 217.135 144.092 214.593L150.561 251.276Z" fill="#62A230"/>
<path d="M150.561 251.276C129.964 254.908 108.785 253.278 88.9867 246.538C69.1886 239.799 51.4138 228.167 37.3115 212.723C23.2093 197.279 13.2366 178.523 8.3189 158.196C3.40118 137.868 3.69777 116.628 9.18115 96.4459C14.6645 76.2637 25.157 57.7936 39.685 42.7495C54.213 27.7053 72.3057 16.5746 92.2842 10.3902C112.263 4.20586 133.48 3.16819 153.966 7.3735C174.453 11.5788 193.546 20.8909 209.472 34.4455L185.331 62.8119C174.182 53.3236 160.817 46.8052 146.476 43.8615C132.136 40.9177 117.284 41.6441 103.299 45.9732C89.314 50.3022 76.6491 58.0937 66.4795 68.6246C56.3099 79.1555 48.9652 92.0846 45.1268 106.212C41.2884 120.34 41.0808 135.208 44.5232 149.437C47.9656 163.666 54.9465 176.795 64.8181 187.606C74.6897 198.417 87.132 206.559 100.991 211.277C114.849 215.995 129.675 217.135 144.092 214.593L150.561 251.276Z" stroke="white" stroke-width="9.66234" mask="url(#path-1-outside-1_2002_533)"/>
</svg>
