<svg width="122" height="230" viewBox="0 0 122 230" fill="none" xmlns="http://www.w3.org/2000/svg">
<mask id="path-1-outside-1_2002_532" maskUnits="userSpaceOnUse" x="-0.28428" y="-0.815406" width="122.358" height="231.678" fill="black">
<rect fill="white" x="-0.28428" y="-0.815406" width="122.358" height="231.678"/>
<path d="M73.3621 6.83066C91.5343 22.3176 104.864 42.7083 111.76 65.5672C118.655 88.426 118.825 112.787 112.249 135.739C105.672 158.692 92.6274 179.266 74.6726 195.005C56.7179 210.743 34.6122 220.981 10.9959 224.494L5.50565 187.591C22.0371 185.132 37.5111 177.966 50.0794 166.949C62.6477 155.932 71.779 141.53 76.3826 125.463C80.9861 109.396 80.8674 92.3434 76.0405 76.3422C71.2136 60.3411 61.8826 46.0676 49.162 35.2267L73.3621 6.83066Z"/>
</mask>
<path d="M73.3621 6.83066C91.5343 22.3176 104.864 42.7083 111.76 65.5672C118.655 88.426 118.825 112.787 112.249 135.739C105.672 158.692 92.6274 179.266 74.6726 195.005C56.7179 210.743 34.6122 220.981 10.9959 224.494L5.50565 187.591C22.0371 185.132 37.5111 177.966 50.0794 166.949C62.6477 155.932 71.779 141.53 76.3826 125.463C80.9861 109.396 80.8674 92.3434 76.0405 76.3422C71.2136 60.3411 61.8826 46.0676 49.162 35.2267L73.3621 6.83066Z" fill="#E4B50E"/>
<path d="M73.3621 6.83066C91.5343 22.3176 104.864 42.7083 111.76 65.5672C118.655 88.426 118.825 112.787 112.249 135.739C105.672 158.692 92.6274 179.266 74.6726 195.005C56.7179 210.743 34.6122 220.981 10.9959 224.494L5.50565 187.591C22.0371 185.132 37.5111 177.966 50.0794 166.949C62.6477 155.932 71.779 141.53 76.3826 125.463C80.9861 109.396 80.8674 92.3434 76.0405 76.3422C71.2136 60.3411 61.8826 46.0676 49.162 35.2267L73.3621 6.83066Z" stroke="white" stroke-width="9.66234" mask="url(#path-1-outside-1_2002_532)"/>
</svg>
