<svg width="54" height="54" viewBox="0 0 54 54" fill="none" xmlns="http://www.w3.org/2000/svg">
<rect width="54" height="54" rx="24.7555" fill="#62A231" fill-opacity="0.09"/>
<path d="M21.4554 22.2069L22.5866 14.6986H17.831C17.1517 14.6986 16.5429 15.1178 16.3005 15.7524L14.2445 21.1343C14.1683 21.3632 14.1297 21.6015 14.1287 21.8494C14.1287 23.4283 15.7734 24.7097 17.8056 24.7097C19.6791 24.7097 21.228 23.6171 21.4554 22.2069ZM27.0001 24.7097C29.0309 24.7097 30.677 23.4283 30.677 21.8494C30.6761 21.7903 30.6737 21.7326 30.6699 21.6764L29.9419 14.6986H24.0583L23.3289 21.6706L23.3232 21.8494C23.3232 23.4283 24.9693 24.7097 27.0001 24.7097ZM39.7571 21.1343L37.7379 15.7607C37.4978 15.1218 36.8868 14.6986 36.2042 14.6986H31.4135L32.5434 22.1955C32.7636 23.6114 34.3125 24.7097 36.1945 24.7097C38.2254 24.7097 39.8715 23.4283 39.8715 21.8494C39.8705 21.6015 39.8324 21.3632 39.7571 21.1343Z" fill="#62A230"/>
<path d="M14.9479 36.8985V24.6927C15.4944 25.2017 15.8258 25.3579 16.477 25.4299V36.8985C16.477 37.3811 16.8682 37.7723 17.3508 37.7723H36.6289C37.1114 37.7723 37.5027 37.3811 37.5027 36.8985V25.4299C38.0611 25.4821 38.4015 25.2753 39.0318 24.6927V36.8985C39.0318 38.2256 37.956 39.3014 36.6289 39.3014H17.3508C16.0237 39.3014 14.9479 38.2256 14.9479 36.8985Z" fill="#62A230"/>
<path d="M32.1172 35.7811C32.4564 35.7105 32.6591 35.3554 32.4902 35.0519C32.1179 34.384 31.5318 33.7967 30.7822 33.3494C29.8164 32.7732 28.6325 32.4605 27.4161 32.4605C26.1996 32.4605 25.0158 32.7726 24.05 33.3494C23.3004 33.7967 22.7143 34.384 22.342 35.0519C22.1731 35.3554 22.3758 35.7105 22.7149 35.7811C25.8155 36.4274 29.016 36.4274 32.1166 35.7811" fill="#62A230"/>
<path d="M27.4163 31.849C29.1128 31.849 30.4881 30.4737 30.4881 28.7771C30.4881 27.0806 29.1128 25.7053 27.4163 25.7053C25.7198 25.7053 24.3445 27.0806 24.3445 28.7771C24.3445 30.4737 25.7198 31.849 27.4163 31.849Z" fill="#62A230"/>
</svg>
