<svg width="54" height="54" viewBox="0 0 54 54" fill="none" xmlns="http://www.w3.org/2000/svg">
<rect width="54" height="54" rx="24.7555" fill="#62A231" fill-opacity="0.09"/>
<path d="M32.3696 22.3004H35.0551C35.0551 18.491 31.3558 16.7535 28.3414 16.3534V13.5726H25.6559V16.3534C22.6415 16.7535 18.9422 18.491 18.9422 22.3004C18.9422 25.9339 22.5219 27.8231 25.6559 28.2487V34.9222C23.7116 34.5851 21.6277 33.5472 21.6277 31.6996H18.9422C18.9422 35.176 22.1983 37.2303 25.6559 37.656V40.4274H28.3414V37.6479C31.3558 37.2478 35.0551 35.509 35.0551 31.6996C35.0551 27.8902 31.3558 26.1527 28.3414 25.7526V19.0778C30.1272 19.3987 32.3696 20.3413 32.3696 22.3004ZM21.6277 22.3004C21.6277 20.3413 23.8701 19.3987 25.6559 19.0778V25.5216C23.815 25.1819 21.6277 24.1762 21.6277 22.3004ZM32.3696 31.6996C32.3696 33.6587 30.1272 34.6013 28.3414 34.9222V28.477C30.1272 28.7979 32.3696 29.7405 32.3696 31.6996Z" fill="#62A230"/>
</svg>
