<svg width="54" height="54" viewBox="0 0 54 54" fill="none" xmlns="http://www.w3.org/2000/svg">
<rect width="54" height="54" rx="24.7555" fill="#62A231" fill-opacity="0.09"/>
<path d="M32.371 33.7137V36.3992H13.5726V33.7137C13.5726 33.7137 13.5726 28.3427 22.9718 28.3427C32.371 28.3427 32.371 33.7137 32.371 33.7137ZM27.6714 20.9577C27.6714 20.0282 27.3957 19.1195 26.8793 18.3467C26.3629 17.5738 25.629 16.9715 24.7702 16.6158C23.9115 16.2601 22.9666 16.167 22.0549 16.3484C21.1433 16.5297 20.3059 16.9773 19.6487 17.6345C18.9914 18.2918 18.5438 19.1292 18.3625 20.0408C18.1811 20.9524 18.2742 21.8974 18.6299 22.7561C18.9856 23.6148 19.588 24.3488 20.3608 24.8652C21.1337 25.3816 22.0423 25.6572 22.9718 25.6572C24.2182 25.6572 25.4135 25.1621 26.2949 24.2808C27.1762 23.3994 27.6714 22.2041 27.6714 20.9577ZM32.2904 28.3427C33.1158 28.9815 33.7913 29.7935 34.2692 30.7214C34.7471 31.6493 35.0158 32.6707 35.0564 33.7137V36.3992H40.4274V33.7137C40.4274 33.7137 40.4274 28.8395 32.2904 28.3427ZM31.0282 16.2581C30.1041 16.2538 29.2005 16.53 28.4367 17.0503C29.2524 18.1899 29.6909 19.5562 29.6909 20.9577C29.6909 22.3591 29.2524 23.7254 28.4367 24.865C29.2005 25.3853 30.1041 25.6615 31.0282 25.6572C32.2746 25.6572 33.47 25.1621 34.3513 24.2808C35.2327 23.3994 35.7278 22.2041 35.7278 20.9577C35.7278 19.7112 35.2327 18.5159 34.3513 17.6345C33.47 16.7532 32.2746 16.2581 31.0282 16.2581Z" fill="#62A230"/>
</svg>
