<svg width="54" height="54" viewBox="0 0 54 54" fill="none" xmlns="http://www.w3.org/2000/svg">
<rect width="54" height="54" rx="24.7555" fill="#62A231" fill-opacity="0.09"/>
<g clip-path="url(#clip0_2002_389)">
<path d="M36.3992 33.7137V36.3992H20.2863V33.7137C20.2863 33.7137 20.2863 28.3427 28.3427 28.3427C36.3992 28.3427 36.3992 33.7137 36.3992 33.7137ZM32.371 21.629C32.371 20.8323 32.1347 20.0535 31.6921 19.3911C31.2494 18.7286 30.6203 18.2123 29.8843 17.9074C29.1482 17.6025 28.3383 17.5228 27.5569 17.6782C26.7755 17.8336 26.0577 18.2173 25.4943 18.7806C24.931 19.344 24.5473 20.0618 24.3919 20.8432C24.2365 21.6246 24.3162 22.4345 24.6211 23.1706C24.926 23.9066 25.4423 24.5357 26.1048 24.9784C26.7672 25.421 27.546 25.6573 28.3427 25.6573C29.4111 25.6573 30.4357 25.2329 31.1911 24.4774C31.9466 23.722 32.371 22.6974 32.371 21.629ZM36.6677 28.4233C37.4017 29.1005 37.9935 29.917 38.4084 30.8254C38.8234 31.7337 39.0533 32.7156 39.0847 33.7137V36.3992H43.1129V33.7137C43.1129 33.7137 43.1129 29.0812 36.6677 28.4233ZM35.0564 17.6008C34.6507 17.6008 34.2475 17.6643 33.8614 17.7888C34.647 18.9153 35.0682 20.2556 35.0682 21.629C35.0682 23.0024 34.647 24.3428 33.8614 25.4693C34.2475 25.5938 34.6507 25.6572 35.0564 25.6573C36.1248 25.6573 37.1494 25.2329 37.9048 24.4774C38.6603 23.722 39.0847 22.6974 39.0847 21.629C39.0847 20.5607 38.6603 19.5361 37.9048 18.7806C37.1494 18.0252 36.1248 17.6008 35.0564 17.6008ZM20.7428 22.8644L22.3004 24.7576L15.9224 31.1356L12.2298 27.1074L13.7874 25.5498L15.9224 27.6714L20.7428 22.8644Z" fill="#62A230"/>
</g>
<defs>
<clipPath id="clip0_2002_389">
<rect width="31.9107" height="31.9107" fill="white" transform="translate(10.8871 10.8871) scale(1.00988)"/>
</clipPath>
</defs>
</svg>
