<svg width="54" height="54" viewBox="0 0 54 54" fill="none" xmlns="http://www.w3.org/2000/svg">
<rect width="54" height="54" rx="24.7555" fill="#62A231" fill-opacity="0.09"/>
<path d="M21.6291 18.2722H32.371C33.4393 18.2722 34.4639 17.8478 35.2194 17.0923C35.9748 16.3369 36.3992 15.3123 36.3992 14.2439C36.3992 14.0659 36.3285 13.8951 36.2026 13.7692C36.0767 13.6433 35.9059 13.5726 35.7278 13.5726H18.2722C18.0941 13.5726 17.9234 13.6433 17.7975 13.7692C17.6716 13.8951 17.6008 14.0659 17.6008 14.2439C17.6008 15.3123 18.0252 16.3369 18.7807 17.0923C19.5361 17.8478 20.5607 18.2722 21.6291 18.2722ZM17.6008 26.3286C17.6008 23.7962 17.6008 22.5314 18.3877 21.7445C19.1745 20.9577 20.4394 20.9577 22.9718 20.9577H31.0283C33.5607 20.9577 34.8255 20.9577 35.6124 21.7445C36.3992 22.5314 36.3992 23.7962 36.3992 26.3286V27.6714C36.3992 30.2038 36.3992 31.4686 35.6124 32.2555C34.8255 33.0423 33.5607 33.0423 31.0283 33.0423H22.9718C20.4394 33.0423 19.1745 33.0423 18.3877 32.2555C17.6008 31.4686 17.6008 30.2038 17.6008 27.6714V26.3286ZM32.371 35.7278H21.6291C20.5607 35.7278 19.5361 36.1522 18.7807 36.9077C18.0252 37.6631 17.6008 38.6877 17.6008 39.756C17.6008 39.9341 17.6716 40.1049 17.7975 40.2308C17.9234 40.3567 18.0941 40.4274 18.2722 40.4274H35.7278C35.9059 40.4274 36.0767 40.3567 36.2026 40.2308C36.3285 40.1049 36.3992 39.9341 36.3992 39.756C36.3992 38.6877 35.9748 37.6631 35.2194 36.9077C34.4639 36.1522 33.4393 35.7278 32.371 35.7278Z" fill="#62A230"/>
</svg>
