<svg width="54" height="54" viewBox="0 0 54 54" fill="none" xmlns="http://www.w3.org/2000/svg">
<rect width="54" height="54" rx="24.7555" fill="#62A231" fill-opacity="0.09"/>
<g clip-path="url(#clip0_2002_402)">
<path d="M39.5882 15.1167C39.242 14.8927 38.846 14.7572 38.4351 14.7221C38.0242 14.687 37.6109 14.7533 37.2317 14.9153L24.8046 19.8096C24.5107 19.9304 24.1959 19.992 23.8781 19.9909H15.9224C15.2547 19.9909 14.6143 20.2561 14.1421 20.7283C13.67 21.2004 13.4047 21.8408 13.4047 22.5085V22.7099H10.8871V28.7523H13.4047V29.0141C13.4205 29.6713 13.6927 30.2963 14.1632 30.7554C14.6336 31.2146 15.265 31.4715 15.9224 31.4713L18.9436 37.8762C19.1481 38.3075 19.4702 38.6724 19.8728 38.9289C20.2754 39.1854 20.7422 39.3232 21.2195 39.3264H22.4884C23.1526 39.3211 23.7878 39.0535 24.2556 38.5819C24.7234 38.1103 24.9859 37.473 24.9859 36.8087V31.713L37.2317 36.6073C37.5333 36.7258 37.8543 36.7873 38.1783 36.7886C38.6811 36.7793 39.1706 36.6255 39.5882 36.3455C39.9195 36.1218 40.1927 35.8225 40.3854 35.4722C40.578 35.122 40.6845 34.7309 40.696 34.3314V17.1913C40.6941 16.7814 40.5923 16.3782 40.3992 16.0167C40.2062 15.6552 39.9278 15.3462 39.5882 15.1167ZM22.4683 22.5085V29.0141H15.9224V22.5085H22.4683ZM22.4683 36.8087H21.1994L18.722 31.4713H22.4683V36.8087ZM25.7311 29.3162C25.4919 29.1941 25.2426 29.093 24.9859 29.0141V22.3675C25.2401 22.3147 25.4894 22.2406 25.7311 22.146L38.1783 17.1913V34.2709L25.7311 29.3162ZM40.7564 23.2135V28.2487C41.4241 28.2487 42.0645 27.9835 42.5366 27.5113C43.0088 27.0392 43.274 26.3988 43.274 25.7311C43.274 25.0634 43.0088 24.423 42.5366 23.9509C42.0645 23.4787 41.4241 23.2135 40.7564 23.2135Z" fill="#62A230"/>
</g>
<defs>
<clipPath id="clip0_2002_402">
<rect width="31.9107" height="31.9107" fill="white" transform="translate(10.8871 10.8871) scale(1.00988)"/>
</clipPath>
</defs>
</svg>
