<svg width="42" height="34" viewBox="0 0 42 34" fill="none" xmlns="http://www.w3.org/2000/svg">
<g clip-path="url(#clip0_2002_359)">
<path d="M21 22.3125C23.934 22.3125 26.3125 19.934 26.3125 17C26.3125 14.066 23.934 11.6875 21 11.6875C18.066 11.6875 15.6875 14.066 15.6875 17C15.6875 19.934 18.066 22.3125 21 22.3125Z" stroke="#7B848F" stroke-width="2.125" stroke-linecap="round" stroke-linejoin="round"/>
<path d="M9.50243 23.6526C8.91536 22.6414 8.4656 21.5565 8.16501 20.4266L10.3936 17.6375C10.3684 17.2111 10.3684 16.7836 10.3936 16.3572L8.16634 13.5681C8.46641 12.438 8.91526 11.3527 9.5011 10.3408L13.0485 9.94234C13.3318 9.62319 13.6338 9.32117 13.953 9.03789L14.3514 5.4918C15.3619 4.90874 16.4454 4.46257 17.5734 4.165L20.3625 6.39359C20.7889 6.36836 21.2164 6.36836 21.6428 6.39359L24.4319 4.16633C25.562 4.46641 26.6473 4.91525 27.6592 5.50109L28.0577 9.04852C28.3768 9.33179 28.6788 9.63381 28.9621 9.95297L32.5082 10.3514C33.0953 11.3626 33.545 12.4475 33.8456 13.5774L31.617 16.3665C31.6423 16.7929 31.6423 17.2204 31.617 17.6468L33.8443 20.4359C33.5463 21.5657 33.0997 22.6509 32.5162 23.6632L28.9688 24.0616C28.6855 24.3808 28.3835 24.6828 28.0643 24.9661L27.6659 28.5122C26.6547 29.0993 25.5698 29.549 24.4399 29.8496L21.6508 27.621C21.2244 27.6463 20.7969 27.6463 20.3705 27.621L17.5814 29.8483C16.4516 29.5503 15.3664 29.1037 14.3541 28.5202L13.9556 24.9727C13.6365 24.6895 13.3345 24.3874 13.0512 24.0683L9.50243 23.6526Z" stroke="#7B848F" stroke-width="2.125" stroke-linecap="round" stroke-linejoin="round"/>
</g>
<defs>
<clipPath id="clip0_2002_359">
<rect x="4" width="34" height="34" rx="17" fill="white"/>
</clipPath>
</defs>
</svg>
