<svg width="42" height="34" viewBox="0 0 42 34" fill="none" xmlns="http://www.w3.org/2000/svg">
<g clip-path="url(#clip0_2002_347)">
<path d="M16.75 25.5C16.75 26.6272 17.1978 27.7082 17.9948 28.5052C18.7918 29.3022 19.8728 29.75 21 29.75C22.1272 29.75 23.2082 29.3022 24.0052 28.5052C24.8022 27.7082 25.25 26.6272 25.25 25.5" stroke="#7B848F" stroke-width="2.125" stroke-linecap="round" stroke-linejoin="round"/>
<path d="M28.4375 3.1875C30.4892 4.49666 32.1534 6.33091 33.2573 8.5" stroke="#7B848F" stroke-width="2.125" stroke-linecap="round" stroke-linejoin="round"/>
<path d="M8.74274 8.5C9.84663 6.33091 11.5108 4.49666 13.5625 3.1875" stroke="#7B848F" stroke-width="2.125" stroke-linecap="round" stroke-linejoin="round"/>
<path d="M11.4375 14.875C11.4375 12.3389 12.445 9.90661 14.2383 8.11329C16.0316 6.31997 18.4639 5.3125 21 5.3125C23.5361 5.3125 25.9684 6.31997 27.7617 8.11329C29.555 9.90661 30.5625 12.3389 30.5625 14.875C30.5625 19.6323 31.6648 22.3922 32.5414 23.9062C32.6345 24.0675 32.6836 24.2504 32.6837 24.4366C32.6839 24.6228 32.6351 24.8057 32.5423 24.9671C32.4495 25.1285 32.3159 25.2627 32.1549 25.3563C31.9939 25.4498 31.8112 25.4993 31.625 25.5H10.375C10.189 25.4989 10.0066 25.449 9.84598 25.3553C9.68535 25.2616 9.55212 25.1273 9.45963 24.966C9.36713 24.8047 9.3186 24.6219 9.31888 24.4359C9.31916 24.2499 9.36825 24.0673 9.46124 23.9062C10.3365 22.3922 11.4375 19.631 11.4375 14.875Z" stroke="#7B848F" stroke-width="2.125" stroke-linecap="round" stroke-linejoin="round"/>
</g>
<rect x="19" y="5" width="5" height="5" rx="2.5" fill="#FF5A29"/>
<defs>
<clipPath id="clip0_2002_347">
<rect x="4" width="34" height="34" rx="17" fill="white"/>
</clipPath>
</defs>
</svg>
