<svg width="33" height="33" viewBox="0 0 33 33" fill="none" xmlns="http://www.w3.org/2000/svg">
<rect width="33" height="33" rx="9.81818" fill="white" fill-opacity="0.2"/>
<path d="M23.1894 20.625L17.6894 11C17.5695 10.7884 17.3955 10.6123 17.1854 10.4899C16.9752 10.3674 16.7364 10.3029 16.4931 10.3029C16.2499 10.3029 16.011 10.3674 15.8009 10.4899C15.5907 10.6123 15.4168 10.7884 15.2969 11L9.79689 20.625C9.67567 20.8349 9.61211 21.0731 9.61264 21.3156C9.61318 21.558 9.6778 21.7959 9.79994 22.0053C9.92209 22.2147 10.0974 22.3881 10.3082 22.5079C10.5189 22.6277 10.7576 22.6896 11 22.6875H22C22.2412 22.6872 22.4782 22.6235 22.687 22.5027C22.8958 22.3819 23.0692 22.2083 23.1897 21.9994C23.3102 21.7904 23.3737 21.5534 23.3736 21.3121C23.3735 21.0709 23.31 20.8339 23.1894 20.625Z" stroke="white" stroke-width="1.36364" stroke-linecap="round" stroke-linejoin="round"/>
<path d="M16.5 14.4374V17.1874" stroke="white" stroke-width="1.36364" stroke-linecap="round" stroke-linejoin="round"/>
<path d="M16.5 19.9376H16.5074" stroke="white" stroke-width="1.36364" stroke-linecap="round" stroke-linejoin="round"/>
</svg>
