<svg width="33" height="33" viewBox="0 0 33 33" fill="none" xmlns="http://www.w3.org/2000/svg">
<rect width="33" height="33" rx="9.81818" fill="white" fill-opacity="0.2"/>
<path d="M16.5 9.62495V23.3749" stroke="white" stroke-width="1.36364" stroke-linecap="round" stroke-linejoin="round"/>
<path d="M19.9375 11.6875H14.7812C14.143 11.6875 13.531 11.941 13.0797 12.3923C12.6285 12.8436 12.375 13.4556 12.375 14.0938C12.375 14.732 12.6285 15.344 13.0797 15.7952C13.531 16.2465 14.143 16.5 14.7812 16.5H18.2187C18.8569 16.5 19.4689 16.7535 19.9202 17.2048C20.3714 17.6561 20.625 18.2681 20.625 18.9063C20.625 19.5444 20.3714 20.1565 19.9202 20.6077C19.4689 21.059 18.8569 21.3125 18.2187 21.3125H12.375" stroke="white" stroke-width="1.36364" stroke-linecap="round" stroke-linejoin="round"/>
</svg>
