<svg width="33" height="33" viewBox="0 0 33 33" fill="none" xmlns="http://www.w3.org/2000/svg">
<rect width="33" height="33" rx="9.81818" fill="white" fill-opacity="0.2"/>
<path d="M18.5625 9.62495H12.375C12.0103 9.62495 11.6606 9.76981 11.4027 10.0277C11.1449 10.2855 11 10.6353 11 10.9999V21.9999C11 22.3646 11.1449 22.7143 11.4027 22.9722C11.6606 23.2301 12.0103 23.3749 12.375 23.3749H20.625C20.9897 23.3749 21.3394 23.2301 21.5973 22.9722C21.8551 22.7143 22 22.3646 22 21.9999V13.0624L18.5625 9.62495Z" stroke="white" stroke-width="1.36364" stroke-linecap="round" stroke-linejoin="round"/>
<path d="M17.875 9.62495V12.3749C17.875 12.7396 18.0199 13.0894 18.2778 13.3472C18.5356 13.6051 18.8854 13.7499 19.25 13.7499H22" stroke="white" stroke-width="1.36364" stroke-linecap="round" stroke-linejoin="round"/>
<path d="M15.125 14.4373H13.75" stroke="white" stroke-width="1.36364" stroke-linecap="round" stroke-linejoin="round"/>
<path d="M19.25 17.1874H13.75" stroke="white" stroke-width="1.36364" stroke-linecap="round" stroke-linejoin="round"/>
<path d="M19.25 19.9376H13.75" stroke="white" stroke-width="1.36364" stroke-linecap="round" stroke-linejoin="round"/>
</svg>
