<svg width="34" height="34" viewBox="0 0 34 34" fill="none" xmlns="http://www.w3.org/2000/svg">
<rect width="34" height="34" rx="12" fill="#EF4343" fill-opacity="0.1"/>
<path d="M24.2974 21.5L18.2974 11C18.1666 10.7692 17.9769 10.5772 17.7476 10.4436C17.5184 10.31 17.2578 10.2396 16.9924 10.2396C16.7271 10.2396 16.4665 10.31 16.2373 10.4436C16.008 10.5772 15.8183 10.7692 15.6874 11L9.68745 21.5C9.55521 21.7291 9.48587 21.989 9.48645 22.2534C9.48704 22.5179 9.55753 22.7775 9.69078 23.0059C9.82403 23.2343 10.0153 23.4235 10.2452 23.5542C10.4751 23.6848 10.7355 23.7524 10.9999 23.75H22.9999C23.2631 23.7498 23.5216 23.6803 23.7494 23.5485C23.9772 23.4167 24.1664 23.2274 24.2978 22.9994C24.4293 22.7714 24.4985 22.5128 24.4984 22.2497C24.4983 21.9865 24.429 21.728 24.2974 21.5Z" stroke="#EF4343" stroke-width="1.5" stroke-linecap="round" stroke-linejoin="round"/>
<path d="M17 14.75V17.75" stroke="#EF4343" stroke-width="1.5" stroke-linecap="round" stroke-linejoin="round"/>
<path d="M17 20.75H17.0075" stroke="#EF4343" stroke-width="1.5" stroke-linecap="round" stroke-linejoin="round"/>
</svg>
