<svg width="33" height="33" viewBox="0 0 33 33" fill="none" xmlns="http://www.w3.org/2000/svg">
<rect width="33" height="33" rx="9.81818" fill="white" fill-opacity="0.2"/>
<path d="M10.3125 15.8123L22.6874 12.3748V20.6248L10.3125 17.8748V15.8123Z" stroke="white" stroke-width="1.36364" stroke-linecap="round" stroke-linejoin="round"/>
<path d="M16.2249 19.7999C16.1527 20.0618 16.0296 20.3068 15.8627 20.5211C15.6958 20.7353 15.4883 20.9146 15.2521 21.0486C15.0158 21.1827 14.7555 21.2689 14.486 21.3024C14.2165 21.3359 13.943 21.3159 13.6812 21.2437C13.4193 21.1715 13.1743 21.0484 12.9601 20.8815C12.7458 20.7145 12.5665 20.507 12.4325 20.2708C12.2984 20.0346 12.2122 19.7743 12.1787 19.5048C12.1452 19.2353 12.1652 18.9618 12.2374 18.6999" stroke="white" stroke-width="1.36364" stroke-linecap="round" stroke-linejoin="round"/>
</svg>
