<svg width="197" height="130" viewBox="0 0 197 130" fill="none" xmlns="http://www.w3.org/2000/svg">
<g filter="url(#filter0_dd_2002_485)">
<path fill-rule="evenodd" clip-rule="evenodd" d="M101.462 104.149C99.5498 106.617 96.4502 106.617 94.5385 104.149L90.3017 98.9477C89.4196 97.8647 88.9785 97.3233 88.4341 96.9337C87.9518 96.5886 87.412 96.3321 86.8398 96.1761C86.194 96 85.4956 96 84.0989 96H35.2291C28.5427 96 26.1181 95.3038 23.6737 93.9965C21.2292 92.6892 19.3108 90.7708 18.0035 88.3263C16.6962 85.8819 16 83.4573 16 76.7709V27.2291C16 20.5427 16.6962 18.1181 18.0035 15.6737C19.3108 13.2292 21.2292 11.3108 23.6737 10.0035C26.1181 8.69619 28.5427 8 35.2291 8H161.771C168.457 8 170.882 8.69619 173.326 10.0035C175.771 11.3108 177.689 13.2292 178.997 15.6737C180.304 18.1181 181 20.5427 181 27.2291V76.7709C181 83.4573 180.304 85.8819 178.997 88.3263C177.689 90.7708 175.771 92.6892 173.326 93.9965C170.882 95.3038 168.457 96 161.771 96H115.703C112.909 96 111.513 96 110.221 96.3522C109.077 96.6642 107.997 97.1773 107.032 97.8675C105.944 98.6466 105.062 99.7295 103.297 101.895L101.462 104.149Z" fill="white"/>
</g>
<defs>
<filter id="filter0_dd_2002_485" x="0" y="0" width="197" height="130" filterUnits="userSpaceOnUse" color-interpolation-filters="sRGB">
<feFlood flood-opacity="0" result="BackgroundImageFix"/>
<feColorMatrix in="SourceAlpha" type="matrix" values="0 0 0 0 0 0 0 0 0 0 0 0 0 0 0 0 0 0 127 0" result="hardAlpha"/>
<feOffset dy="8"/>
<feGaussianBlur stdDeviation="8"/>
<feColorMatrix type="matrix" values="0 0 0 0 0.196487 0 0 0 0 0.196487 0 0 0 0 0.279476 0 0 0 0.06 0"/>
<feBlend mode="multiply" in2="BackgroundImageFix" result="effect1_dropShadow_2002_485"/>
<feColorMatrix in="SourceAlpha" type="matrix" values="0 0 0 0 0 0 0 0 0 0 0 0 0 0 0 0 0 0 127 0" result="hardAlpha"/>
<feOffset dy="8"/>
<feGaussianBlur stdDeviation="4"/>
<feColorMatrix type="matrix" values="0 0 0 0 0.196487 0 0 0 0 0.196487 0 0 0 0 0.279476 0 0 0 0.08 0"/>
<feBlend mode="multiply" in2="effect1_dropShadow_2002_485" result="effect2_dropShadow_2002_485"/>
<feBlend mode="normal" in="SourceGraphic" in2="effect2_dropShadow_2002_485" result="shape"/>
</filter>
</defs>
</svg>
